<?xml version="1.0" encoding="UTF-8"?>
<svg width="600px" height="400px" viewBox="0 0 600 400" version="1.1" xmlns="http://www.w3.org/2000/svg" xmlns:xlink="http://www.w3.org/1999/xlink">
    <!-- Generator: Sketch 64 (93537) - https://sketch.com -->
    <title>editable-areas</title>
    <desc>Created with Sketch.</desc>
    <defs>
        <rect id="path-1" x="105" y="244" width="437" height="90" rx="9.59999943"></rect>
        <filter x="-1.6%" y="-5.6%" width="103.2%" height="115.6%" filterUnits="objectBoundingBox" id="filter-2">
            <feOffset dx="0" dy="2" in="SourceAlpha" result="shadowOffsetOuter1"></feOffset>
            <feGaussianBlur stdDeviation="2" in="shadowOffsetOuter1" result="shadowBlurOuter1"></feGaussianBlur>
            <feColorMatrix values="0 0 0 0 0   0 0 0 0 0   0 0 0 0 0  0 0 0 0.5 0" type="matrix" in="shadowBlurOuter1"></feColorMatrix>
        </filter>
        <rect id="path-3" x="124.199999" y="261.599999" width="329.59998" height="54" rx="6.39999962"></rect>
        <filter x="-1.7%" y="-6.5%" width="103.3%" height="120.4%" filterUnits="objectBoundingBox" id="filter-4">
            <feOffset dx="0" dy="2" in="SourceAlpha" result="shadowOffsetOuter1"></feOffset>
            <feGaussianBlur stdDeviation="1.5" in="shadowOffsetOuter1" result="shadowBlurOuter1"></feGaussianBlur>
            <feColorMatrix values="0 0 0 0 0   0 0 0 0 0   0 0 0 0 0  0 0 0 0.24 0" type="matrix" in="shadowBlurOuter1"></feColorMatrix>
        </filter>
        <rect id="path-5" x="0" y="0" width="53.8338415" height="53.8338415" rx="9.84765394"></rect>
        <filter x="-6.5%" y="-4.6%" width="113.0%" height="113.0%" filterUnits="objectBoundingBox" id="filter-6">
            <feOffset dx="0" dy="1" in="SourceAlpha" result="shadowOffsetOuter1"></feOffset>
            <feGaussianBlur stdDeviation="1" in="shadowOffsetOuter1" result="shadowBlurOuter1"></feGaussianBlur>
            <feColorMatrix values="0 0 0 0 0   0 0 0 0 0   0 0 0 0 0  0 0 0 0.24 0" type="matrix" in="shadowBlurOuter1"></feColorMatrix>
        </filter>
        <path d="M14.1664363,30.5712385 C13.1427856,29.4311095 13.2408148,27.676776 14.3851167,26.6568584 C15.5294187,25.6369407 17.2901732,25.7346124 18.3138239,26.8747413 L22.9928312,32.0720013 L37.8536751,17.263473 C38.9433069,16.1778148 40.7116022,16.1778148 41.801234,17.263473 C42.8908658,18.3491312 42.8908658,20.1109779 41.801234,21.1966362 L24.7441599,38.1746026 C23.5998579,39.1945202 21.8391033,39.0968486 20.8154527,37.9567196 L14.1664363,30.5712385 L14.1664363,30.5712385 Z" id="path-7"></path>
        <filter x="-12.0%" y="-11.1%" width="124.0%" height="131.2%" filterUnits="objectBoundingBox" id="filter-8">
            <feOffset dx="0" dy="1" in="SourceAlpha" result="shadowOffsetOuter1"></feOffset>
            <feGaussianBlur stdDeviation="1" in="shadowOffsetOuter1" result="shadowBlurOuter1"></feGaussianBlur>
            <feColorMatrix values="0 0 0 0 0   0 0 0 0 0   0 0 0 0 0  0 0 0 0.24 0" type="matrix" in="shadowBlurOuter1"></feColorMatrix>
        </filter>
        <rect id="path-9" x="0" y="-4.05009359e-13" width="180" height="78.000003" rx="14.2682932"></rect>
        <filter x="-5.6%" y="-10.3%" width="111.1%" height="125.6%" filterUnits="objectBoundingBox" id="filter-10">
            <feOffset dx="0" dy="2" in="SourceAlpha" result="shadowOffsetOuter1"></feOffset>
            <feGaussianBlur stdDeviation="3" in="shadowOffsetOuter1" result="shadowBlurOuter1"></feGaussianBlur>
            <feColorMatrix values="0 0 0 0 0   0 0 0 0 0   0 0 0 0 0  0 0 0 0.4 0" type="matrix" in="shadowBlurOuter1"></feColorMatrix>
        </filter>
        <filter x="-23.5%" y="-18.5%" width="147.1%" height="136.9%" filterUnits="objectBoundingBox" id="filter-11">
            <feOffset dx="0" dy="2" in="SourceAlpha" result="shadowOffsetOuter1"></feOffset>
            <feGaussianBlur stdDeviation="2" in="shadowOffsetOuter1" result="shadowBlurOuter1"></feGaussianBlur>
            <feColorMatrix values="0 0 0 0 0   0 0 0 0 0   0 0 0 0 0  0 0 0 0.3 0" type="matrix" in="shadowBlurOuter1" result="shadowMatrixOuter1"></feColorMatrix>
            <feMerge>
                <feMergeNode in="shadowMatrixOuter1"></feMergeNode>
                <feMergeNode in="SourceGraphic"></feMergeNode>
            </feMerge>
        </filter>
        <path d="M440.711903,166.100136 L406.726563,216.000002 L387.197874,158.871809 L408.098389,161.692371 C405.622037,107.663883 368.130986,84.534149 292.954762,91.7372192 L290.579607,91.9735943 L289.553206,82.0264088 C372.355635,73.4824358 416.173714,100.691671 418.159221,163.050494 L440.711903,166.100136 Z" id="path-12"></path>
        <filter x="-4.6%" y="-3.7%" width="109.3%" height="110.3%" filterUnits="objectBoundingBox" id="filter-13">
            <feOffset dx="0" dy="2" in="SourceAlpha" result="shadowOffsetOuter1"></feOffset>
            <feGaussianBlur stdDeviation="2" in="shadowOffsetOuter1" result="shadowBlurOuter1"></feGaussianBlur>
            <feColorMatrix values="0 0 0 0 0   0 0 0 0 0   0 0 0 0 0  0 0 0 0.5 0" type="matrix" in="shadowBlurOuter1"></feColorMatrix>
        </filter>
    </defs>
    <g id="editable-areas" stroke="none" stroke-width="1" fill="none" fill-rule="evenodd">
        <rect id="Rectangle-Copy" fill="#212529" x="0" y="0" width="600" height="400"></rect>
        <g id="Rectangle-Copy-2">
            <use fill="black" fill-opacity="1" filter="url(#filter-2)" xlink:href="#path-1"></use>
            <use fill="#495057" fill-rule="evenodd" xlink:href="#path-1"></use>
        </g>
        <g id="Rectangle-32-Copy">
            <use fill="black" fill-opacity="1" filter="url(#filter-4)" xlink:href="#path-3"></use>
            <use fill="#FFFFFF" fill-rule="evenodd" xlink:href="#path-3"></use>
        </g>
        <g id="Group-3-Copy" transform="translate(469.000000, 261.000000)">
            <g id="Rectangle">
                <use fill="black" fill-opacity="1" filter="url(#filter-6)" xlink:href="#path-5"></use>
                <use fill="#37B24D" fill-rule="evenodd" xlink:href="#path-5"></use>
            </g>
            <g id="Path">
                <use fill="black" fill-opacity="1" filter="url(#filter-8)" xlink:href="#path-7"></use>
                <use fill="#FFFFFF" fill-rule="evenodd" xlink:href="#path-7"></use>
            </g>
        </g>
        <path d="M154.599998,296.399999 L154.599998,293.207999 L146.079998,293.207999 L146.079998,289.967999 L152.607998,289.967999 L152.607998,286.967999 L146.079998,286.967999 L146.079998,283.751999 L154.287998,283.751999 L154.287998,280.559999 L141.951998,280.559999 L141.951998,296.399999 L154.599998,296.399999 Z M161.031998,296.639999 C162.855998,296.639999 164.271998,295.655999 164.943998,294.047999 L165.087998,296.399999 L168.735998,296.399999 L168.735998,279.311999 L164.655998,279.311999 L164.655998,286.439999 C164.031998,285.071999 162.831998,284.159999 161.127998,284.159999 C158.151998,284.159999 156.087998,286.439999 156.087998,290.447999 C156.087998,294.359999 158.055998,296.639999 161.031998,296.639999 Z M162.447998,293.639999 C161.031998,293.639999 160.191998,292.631999 160.191998,290.399999 C160.191998,288.167999 161.055998,287.159999 162.471998,287.159999 C163.839998,287.159999 164.655998,288.311999 164.655998,290.327999 C164.655998,292.487999 163.791998,293.639999 162.447998,293.639999 Z M173.703998,283.007999 C175.359998,283.007999 176.079998,282.407999 176.079998,281.063999 C176.079998,279.695999 175.359998,279.095999 173.703998,279.095999 C172.047998,279.095999 171.327998,279.695999 171.327998,281.063999 C171.327998,282.407999 172.047998,283.007999 173.703998,283.007999 Z M175.743998,296.399999 L175.743998,284.399999 L171.663998,284.399999 L171.663998,296.399999 L175.743998,296.399999 Z M184.047998,296.639999 C185.295998,296.639999 186.639998,296.279999 187.431998,295.727999 L186.999998,293.207999 C186.519998,293.543999 186.015998,293.735999 185.247998,293.735999 C184.239998,293.735999 183.663998,293.279999 183.663998,292.127999 L183.663998,287.303999 L187.239998,287.303999 L187.239998,284.399999 L183.663998,284.399999 L183.663998,280.583999 L179.583998,281.711999 L179.583998,284.399999 L177.519998,284.399999 L177.519998,287.303999 L179.583998,287.303999 L179.583998,292.799999 C179.607998,295.583999 181.311998,296.639999 184.047998,296.639999 Z M199.335998,296.639999 C200.943998,296.639999 202.575998,296.039999 203.247998,294.839999 C203.631998,296.039999 204.783998,296.615999 206.295998,296.615999 C207.015998,296.615999 207.591998,296.495999 208.047998,296.279999 L208.287998,293.951999 C208.095998,294.023999 207.855998,294.047999 207.591998,294.047999 C207.039998,294.047999 206.751998,293.759999 206.751998,293.111999 L206.751998,288.719999 C206.751998,285.743999 204.711998,284.159999 201.207998,284.159999 C197.727998,284.159999 195.807998,285.647999 195.375998,287.951999 L198.831998,288.767999 C199.119998,287.423999 199.911998,286.967999 200.967998,286.967999 C202.023998,286.967999 202.695998,287.663999 202.695998,288.791999 L202.695998,289.127999 L198.543998,289.991999 C196.311998,290.447999 195.303998,291.599999 195.303998,293.327999 C195.303998,295.487999 196.863998,296.639999 199.335998,296.639999 Z M200.631998,293.999999 C199.911998,293.999999 199.335998,293.663999 199.335998,292.943999 C199.335998,292.223999 199.791998,291.911999 200.751998,291.695999 L202.695998,291.287999 L202.695998,291.959999 C202.695998,293.375999 201.711998,293.999999 200.631998,293.999999 Z M213.975998,296.399999 L213.975998,290.351999 C213.975998,288.479999 215.223998,287.567999 216.687998,287.567999 C217.383998,287.567999 217.863998,287.663999 218.199998,287.783999 L218.607998,284.423999 C218.343998,284.279999 217.911998,284.159999 217.311998,284.159999 C215.439998,284.159999 214.263998,285.215999 213.663998,286.991999 L213.495998,284.399999 L209.895998,284.399999 L209.895998,296.399999 L213.975998,296.399999 Z M225.927998,296.639999 C228.447998,296.639999 230.751998,295.535999 231.447998,293.471999 L228.183998,292.391999 C227.823998,293.255999 227.127998,293.759999 225.927998,293.759999 C224.511998,293.759999 223.623998,293.087999 223.407998,291.431999 L231.591998,291.431999 C231.639998,291.047999 231.687998,290.447999 231.687998,289.847999 C231.687998,286.535999 229.527998,284.159999 225.735998,284.159999 C222.015998,284.159999 219.447998,286.439999 219.447998,290.399999 C219.447998,294.359999 221.943998,296.639999 225.927998,296.639999 Z M227.799998,289.247999 L223.431998,289.247999 C223.671998,287.711999 224.463998,287.015999 225.735998,287.015999 C226.983998,287.015999 227.655998,287.807999 227.799998,289.247999 Z M237.303998,296.639999 C238.911998,296.639999 240.543998,296.039999 241.215998,294.839999 C241.599998,296.039999 242.751998,296.615999 244.263998,296.615999 C244.983998,296.615999 245.559998,296.495999 246.015998,296.279999 L246.255998,293.951999 C246.063998,294.023999 245.823998,294.047999 245.559998,294.047999 C245.007998,294.047999 244.719998,293.759999 244.719998,293.111999 L244.719998,288.719999 C244.719998,285.743999 242.679998,284.159999 239.175998,284.159999 C235.695998,284.159999 233.775998,285.647999 233.343998,287.951999 L236.799998,288.767999 C237.087998,287.423999 237.879998,286.967999 238.935998,286.967999 C239.991998,286.967999 240.663998,287.663999 240.663998,288.791999 L240.663998,289.127999 L236.511998,289.991999 C234.279998,290.447999 233.271998,291.599999 233.271998,293.327999 C233.271998,295.487999 234.831998,296.639999 237.303998,296.639999 Z M238.599998,293.999999 C237.879998,293.999999 237.303998,293.663999 237.303998,292.943999 C237.303998,292.223999 237.759998,291.911999 238.719998,291.695999 L240.663998,291.287999 L240.663998,291.959999 C240.663998,293.375999 239.679998,293.999999 238.599998,293.999999 Z M252.903998,296.639999 C256.671998,296.639999 258.543998,294.839999 258.543998,292.511999 C258.543998,290.831999 257.535998,289.607999 255.063998,289.151999 L252.879998,288.719999 C251.799998,288.503999 251.463998,288.215999 251.463998,287.783999 C251.463998,287.231999 252.039998,286.895999 253.215998,286.895999 C254.415998,286.895999 255.759998,287.471999 256.527998,288.431999 L258.471998,286.223999 C257.367998,284.903999 255.495998,284.159999 253.047998,284.159999 C249.183998,284.159999 247.407998,286.127999 247.407998,288.071999 C247.407998,290.015999 248.535998,291.167999 251.559998,291.791999 L253.239998,292.127999 C254.199998,292.319999 254.439998,292.583999 254.439998,293.015999 C254.439998,293.615999 253.719998,293.903999 252.735998,293.903999 C251.103998,293.903999 249.711998,293.135999 248.919998,292.103999 L246.999998,294.359999 C248.367998,295.847999 250.503998,296.639999 252.903998,296.639999 Z M275.223998,296.639999 C278.175998,296.639999 280.167998,294.359999 280.167998,290.447999 C280.167998,286.463999 278.151998,284.159999 275.367998,284.159999 C273.519998,284.159999 272.247998,285.095999 271.599998,286.463999 L271.599998,279.311999 L267.519998,279.311999 L267.519998,296.399999 L271.095998,296.399999 L271.215998,293.759999 C271.863998,295.463999 273.303998,296.639999 275.223998,296.639999 Z M273.807998,293.639999 C272.463998,293.639999 271.599998,292.511999 271.599998,290.423999 C271.599998,288.383999 272.415998,287.159999 273.807998,287.159999 C275.223998,287.159999 276.063998,288.167999 276.063998,290.399999 C276.063998,292.631999 275.223998,293.639999 273.807998,293.639999 Z M286.623998,296.639999 C288.567998,296.639999 289.983998,295.823999 290.727998,294.143999 L290.847998,296.399999 L294.495998,296.399999 L294.495998,284.399999 L290.415998,284.399999 L290.415998,290.831999 C290.415998,292.703999 289.479998,293.519999 288.327998,293.519999 C287.199998,293.519999 286.575998,292.991999 286.575998,291.455999 L286.575998,284.399999 L282.495998,284.399999 L282.495998,292.415999 C282.495998,295.439999 284.175998,296.639999 286.623998,296.639999 Z M299.463998,283.007999 C301.119998,283.007999 301.839998,282.407999 301.839998,281.063999 C301.839998,279.695999 301.119998,279.095999 299.463998,279.095999 C297.807998,279.095999 297.087998,279.695999 297.087998,281.063999 C297.087998,282.407999 297.807998,283.007999 299.463998,283.007999 Z M301.503998,296.399999 L301.503998,284.399999 L297.423998,284.399999 L297.423998,296.399999 L301.503998,296.399999 Z M308.007998,296.639999 C308.895998,296.639999 309.927998,296.399999 310.503998,296.039999 L310.767998,293.591999 C310.335998,293.735999 310.071998,293.783999 309.591998,293.783999 C308.751998,293.783999 308.439998,293.375999 308.439998,292.319999 L308.439998,279.311999 L304.359998,279.311999 L304.359998,292.847999 C304.359998,295.511999 305.439998,296.639999 308.007998,296.639999 Z M317.247998,296.639999 C318.495998,296.639999 319.839998,296.279999 320.631998,295.727999 L320.199998,293.207999 C319.719998,293.543999 319.215998,293.735999 318.447998,293.735999 C317.439998,293.735999 316.863998,293.279999 316.863998,292.127999 L316.863998,287.303999 L320.439998,287.303999 L320.439998,284.399999 L316.863998,284.399999 L316.863998,280.583999 L312.783998,281.711999 L312.783998,284.399999 L310.719998,284.399999 L310.719998,287.303999 L312.783998,287.303999 L312.783998,292.799999 C312.807998,295.583999 314.511998,296.639999 317.247998,296.639999 Z M331.239998,283.007999 C332.895998,283.007999 333.615998,282.407999 333.615998,281.063999 C333.615998,279.695999 332.895998,279.095999 331.239998,279.095999 C329.583998,279.095999 328.863998,279.695999 328.863998,281.063999 C328.863998,282.407999 329.583998,283.007999 331.239998,283.007999 Z M333.279998,296.399999 L333.279998,284.399999 L329.199998,284.399999 L329.199998,296.399999 L333.279998,296.399999 Z M340.263998,296.399999 L340.263998,290.039999 C340.263998,288.047999 341.247998,287.279999 342.423998,287.279999 C343.431998,287.279999 344.127998,287.831999 344.127998,289.487999 L344.127998,296.399999 L348.207998,296.399999 L348.207998,288.407999 C348.207998,285.623999 346.527998,284.159999 344.055998,284.159999 C342.135998,284.159999 340.671998,285.071999 339.951998,286.823999 L339.831998,284.399999 L336.183998,284.399999 L336.183998,296.399999 L340.263998,296.399999 Z M354.879998,291.239999 L355.335998,285.671999 L355.335998,280.559999 L351.087998,280.559999 L351.087998,285.671999 L351.543998,291.239999 L354.879998,291.239999 Z M353.199998,296.591999 C354.639998,296.591999 355.527998,295.847999 355.527998,294.599999 C355.527998,293.327999 354.639998,292.583999 353.199998,292.583999 C351.759998,292.583999 350.895998,293.327999 350.895998,294.599999 C350.895998,295.847999 351.759998,296.591999 353.199998,296.591999 Z" id="Editareasbuiltin!" fill="#343A40" fill-rule="nonzero"></path>
        <g id="Group-Copy" transform="translate(81.000000, 57.000000)">
            <g id="Rectangle">
                <use fill="black" fill-opacity="1" filter="url(#filter-10)" xlink:href="#path-9"></use>
                <use fill="#228AE6" fill-rule="evenodd" xlink:href="#path-9"></use>
            </g>
            <path d="M76.8678261,50 L76.8678261,46.2935652 L64.4796522,46.2935652 L64.4796522,40.6838261 L73.8626087,40.6838261 L73.8626087,37.1443478 L64.4796522,37.1443478 L64.4796522,31.6681739 L76.4003478,31.6681739 L76.4003478,27.9617391 L59.8716522,27.9617391 L59.8716522,50 L76.8678261,50 Z M86.4511304,50.333913 C88.9554783,50.333913 91.0257391,48.9982609 91.9606957,46.7610435 L92.1610435,50 L96.2681739,50 L96.2681739,25.9916522 L91.6935652,25.9916522 L91.6935652,36.1092174 C90.792,34.205913 89.0222609,32.9704348 86.618087,32.9704348 C82.4775652,32.9704348 79.3053913,36.1426087 79.3053913,41.6855652 C79.3053913,47.1283478 82.3106087,50.333913 86.4511304,50.333913 Z M87.7867826,46.8278261 C85.3158261,46.8278261 83.88,45.0246957 83.88,41.6521739 C83.88,38.2796522 85.3826087,36.4765217 87.8535652,36.4765217 C90.1909565,36.4765217 91.6935652,38.3464348 91.6935652,41.5186087 C91.6935652,44.8911304 90.1575652,46.8278261 87.7867826,46.8278261 Z M103.380522,30.9001739 C105.283826,30.9001739 106.218783,30.0987826 106.218783,28.4626087 C106.218783,26.8264348 105.283826,25.9916522 103.380522,25.9916522 C101.477217,25.9916522 100.542261,26.8264348 100.542261,28.4626087 C100.542261,30.0987826 101.477217,30.9001739 103.380522,30.9001739 Z M105.65113,50 L105.65113,33.3043478 L101.076522,33.3043478 L101.076522,50 L105.65113,50 Z M117.505043,50.333913 C119.274783,50.333913 120.944348,49.8330435 122.046261,48.9648696 L121.311652,45.9262609 C120.610435,46.5273043 119.842435,46.8612174 118.70713,46.8612174 C117.271304,46.8612174 116.40313,46.16 116.40313,44.5572174 L116.40313,36.7102609 L121.745739,36.7102609 L121.745739,33.3043478 L116.40313,33.3043478 L116.40313,28.1954783 L111.828522,29.4643478 L111.828522,33.3043478 L108.756522,33.3043478 L108.756522,36.7102609 L111.828522,36.7102609 L111.828522,45.2918261 C111.828522,48.9648696 114.132522,50.333913 117.505043,50.333913 Z" id="Edit" fill="#FFFFFF" fill-rule="nonzero"></path>
        </g>
        <g id="Group-2-Copy" filter="url(#filter-11)" transform="translate(221.000000, 99.000000)">
            <path d="M12.3630128,52.2352311 C11.4637186,51.0789957 10.3396009,48.7344074 8.38042434,45.8117013 C7.25630663,44.2058189 4.49418883,41.1546423 3.65912996,39.5808775 C3.05715334,38.6245121 2.88247765,37.4600075 3.17736523,36.3691126 C3.68148375,34.2949832 5.64901477,32.9190874 7.77018901,33.1573477 C9.41076237,33.4869095 10.9184344,34.2910013 12.1060716,35.4698184 C12.9352869,36.2508334 13.6980389,37.0995294 14.3864247,38.0071127 C14.9003071,38.6494656 15.0287776,38.9064068 15.6068953,39.6451128 C16.185013,40.3838187 16.5704248,41.1225246 16.281366,40.0305245 C16.0565424,38.4246421 15.6711306,35.7267596 15.1251306,33.3179359 C14.7076012,31.48723 14.6112482,31.1981711 14.2258364,29.8171122 C13.8404246,28.4360533 13.6156011,27.279818 13.1980717,25.7060532 C12.8164072,24.159819 12.5162289,22.5946036 12.2987775,21.0168764 C11.8939441,18.9989376 12.1884673,16.9032921 13.1338364,15.0751114 C14.2560046,14.0196276 15.9021541,13.7410484 17.3091307,14.3685231 C18.7242233,15.4134267 19.7793035,16.8725801 20.3281897,18.5438175 C21.1698815,20.6005949 21.7316056,22.7610724 21.9983074,24.9673472 C22.5121898,28.1791121 23.5078369,32.8682889 23.5399546,33.8318183 C23.5399546,32.6434653 23.315131,30.1382887 23.5399546,29.014171 C23.7627002,27.8422755 24.5772211,26.8697132 25.6918371,26.4447591 C26.64833,26.1512847 27.6601527,26.0852963 28.6466608,26.2520532 C29.6424257,26.4602267 30.5244636,27.0329785 31.1197197,27.8579356 C31.8638246,29.7316568 32.2767869,31.7203964 32.3401904,33.7354654 C32.4261969,31.9708783 32.7282143,30.2234909 33.2394845,28.5324063 C33.7761836,27.7761937 34.5599445,27.2309687 35.4556023,26.9907591 C36.5173896,26.7966244 37.6055799,26.7966244 38.6673672,26.9907591 C39.538059,27.2818441 40.2997178,27.8306866 40.8513673,28.5645239 C41.5315244,30.2678704 41.9432463,32.0664451 42.071838,33.8960536 C42.071838,34.3457007 42.2966615,32.6434653 43.0032498,31.5193476 C43.3704348,30.4292672 44.2912786,29.6178822 45.4189084,29.3908335 C46.5465382,29.1637848 47.7096403,29.5555665 48.470085,30.4185983 C49.2305301,31.28163 49.4727881,32.4847967 49.1056031,33.5748771 L49.1056031,36.9793479 L49.1056031,40.8334658 C48.9885705,42.712924 48.7309083,44.5809745 48.3347795,46.4219367 C47.7758518,48.050683 46.9978913,49.5957985 46.0223088,51.0147604 C44.4628293,52.7489982 43.1742904,54.7088765 42.2003086,56.8280549 C41.9586496,57.880883 41.8507394,58.9599865 41.8791321,60.0398198 C41.8759091,61.0374999 42.0055182,62.0311696 42.2645439,62.9946435 C40.9513788,63.1334633 39.6272381,63.1334633 38.314073,62.9946435 C37.0614847,62.8019376 35.5198376,60.296761 35.1023082,59.5259374 C34.8957207,59.1120456 34.4728928,58.8505212 34.0103081,58.8505212 C33.5477234,58.8505212 33.1248955,59.1120456 32.918308,59.5259374 C32.2117198,60.746408 30.637955,62.9625258 29.5459549,63.0909964 C27.3940724,63.3479376 22.9618369,63.0909964 19.4610132,63.0909964 C19.4610132,63.0909964 20.0391309,59.8792315 18.7223073,58.7229962 C17.4054837,57.5667608 16.0565424,56.2178196 15.0608953,55.3185254 L12.3630128,52.2352311 Z" id="Shape" fill="#FFFFFF" fill-rule="nonzero"></path>
            <path d="M15.868196,54.4247282 C16.3222861,54.8348741 18.1717805,56.5909746 18.3604757,56.7670034 C18.6609981,57.0473526 18.9354735,57.2991871 19.1969904,57.5338274 C19.3574145,57.6772937 19.3574145,57.6772937 19.5169796,57.8179526 C20.252639,58.4638973 20.615707,59.4143517 20.7424396,60.5715981 C20.7901915,61.0076398 20.8018062,61.4533698 20.7859143,61.8965234 C21.323452,61.9040521 21.9333577,61.9160104 22.6902794,61.9329114 C22.9357822,61.9384244 22.9357822,61.9384244 23.1807451,61.9439942 C26.8674334,62.0278621 28.2911063,62.0278621 29.4052299,61.894834 C29.767098,61.8522614 31.0435675,60.3602842 31.8406765,58.9880544 C32.2511333,58.1657171 33.091225,57.6461094 34.0103081,57.6461094 C34.9293912,57.6461094 35.7694829,58.1657171 36.1613379,58.9522963 C36.8562327,60.2351789 38.0499825,61.7354322 38.4406908,61.7969057 C39.2269366,61.8800229 40.0173863,61.9099659 40.8066611,61.8867342 C40.7169944,61.2794515 40.6729069,60.6705796 40.6751365,60.0714772 C40.6440819,58.8904094 40.7621088,57.7101401 41.1059472,56.3250825 C42.1305869,54.0956835 43.4861441,52.0338698 45.0298381,50.3324043 C45.9435184,49.0034781 46.6721156,47.5564027 47.1573176,46.1685763 C47.5407933,44.3864184 47.7902251,42.5780373 47.9011912,40.8334658 L47.9011912,33.5748771 L47.9642048,33.1904061 C48.1940316,32.5081081 48.0423984,31.7550275 47.5664245,31.2148426 C47.0904502,30.6746578 46.3624469,30.4294356 45.6566461,30.5715488 C44.9508451,30.7136621 44.3744749,31.2215205 44.0229488,32.1603013 C43.9221559,32.3206538 43.8237253,32.5176834 43.7301772,32.7445239 C43.5870051,33.0916952 43.4767336,33.4453545 43.3568513,33.8994848 C43.3020811,34.1118114 43.2708903,34.2290517 43.2412994,34.3168287 C43.2177221,34.3888423 43.2177221,34.3888423 43.1344899,34.558377 C42.9398916,35.0786873 42.9398916,35.0786873 41.1825915,34.7737144 C40.8240583,33.9670242 40.8240583,33.9670242 40.8703899,33.9804958 C40.7505343,32.2751813 40.3667826,30.5987924 39.8886392,29.2882381 C39.483705,28.7495703 38.9246148,28.3466965 38.4507465,28.1755305 C37.5321856,28.007583 36.5907839,28.007583 35.7675922,28.1540605 C35.2016757,28.3058356 34.6997979,28.6321721 34.3320251,29.0843284 C33.8857639,30.6177422 33.6209452,32.1984739 33.5431742,33.7940991 C33.4680678,35.3350478 31.1848932,35.3153579 31.1363743,33.7733431 C31.0773575,31.8976931 30.6929673,30.0465507 30.1430212,28.5626823 C29.7235297,27.9813149 29.101936,27.5776827 28.4459177,27.439618 C27.6443799,27.304128 26.822274,27.3577436 26.1209005,27.5701534 C25.3969209,27.846175 24.8678629,28.477886 24.7209775,29.2503756 C24.644282,29.6338535 24.6272547,30.3592473 24.6614914,31.4256504 C24.6692113,31.6661117 24.6760683,31.8416337 24.6933232,32.2533953 C24.737607,33.297227 24.7443664,33.4839157 24.7443664,33.8318183 C24.7443664,35.4111664 22.388827,35.4504145 22.3362113,33.8719431 C22.3225229,33.4612906 22.3164806,33.4275543 21.4352285,28.699567 C21.3851174,28.4304029 21.3851174,28.4304029 21.3351364,28.1603699 C21.1102065,26.9430102 20.9418832,25.9880138 20.8026002,25.1118883 C20.5488367,23.0126449 20.0143631,20.9569771 19.1839126,18.9196336 C18.7129932,17.4857879 17.8077823,16.2339006 16.8185684,15.4685033 C15.9146322,15.0653715 14.8665497,15.2083057 14.1057843,15.8242891 C13.3641348,17.3622829 13.1435418,19.1050177 13.4919103,20.852432 C13.7036029,22.3883761 13.9958316,23.9121398 14.3622098,25.3972002 C14.5461669,26.0905769 14.5478951,26.0976887 14.9381604,27.7333544 C14.9867393,27.9365917 14.9867393,27.9365917 15.0354168,28.1378539 C15.1602051,28.651707 15.2679831,29.0707551 15.3859214,29.4933676 C15.5998919,30.25524 15.6869346,30.5659217 15.7624451,30.8456104 C15.7852684,30.9303871 15.7852684,30.9303871 15.8080182,31.0159334 C15.948553,31.5461215 16.0848596,32.1094916 16.2997458,33.0516898 C16.7533426,35.0528522 17.078663,37.0386624 17.4456772,39.7223245 C17.5532371,40.1286622 17.5970722,40.3557453 17.5813229,40.609485 C17.5412515,41.2550803 17.5336141,41.2663962 16.1591659,41.772845 C15.5186333,41.5103719 15.5186333,41.5103719 15.3930045,41.3505754 C15.2537559,41.2028875 14.7293399,40.478028 14.658415,40.3874017 C14.3926312,40.047789 14.2950463,39.9143669 13.953044,39.4346351 C13.7542528,39.1561244 13.6278851,38.9869379 13.4268163,38.7349585 C12.7788288,37.8806372 12.0608391,37.0817473 11.2576039,36.3246344 C10.2373968,35.3120039 8.9422725,34.621271 7.63574923,34.3542327 C6.11718131,34.18366 4.70860796,35.1686763 4.3400466,36.6834053 C4.13292319,37.4496291 4.25561207,38.2675549 4.72304597,39.0163506 C5.03821938,39.6103312 5.70840654,40.5146361 6.87958473,41.9662056 C6.97727277,42.0871868 6.97727277,42.0871868 7.07530746,42.2082835 C7.39728718,42.6051282 7.39728718,42.6051282 7.71594844,42.9974096 C8.03029826,43.3852551 8.15557594,43.5405321 8.33093027,43.7602425 C8.78213603,44.3255815 9.11282721,44.7577454 9.380861,45.141079 C10.4452268,46.7289033 12.8858018,50.916008 13.2975916,51.4744472 L15.868196,54.4247282 Z M50.3100149,36.9793479 C50.3100149,39.0188186 50.3100149,39.0188186 50.3076867,40.9083186 C50.186916,42.8478106 49.9210233,44.7755306 49.4739806,46.8128698 C48.8795879,48.544963 48.0522646,50.188119 46.9178837,51.8200886 C45.4395144,53.4641269 44.2179939,55.3220699 43.3741938,57.0975004 C43.1551907,58.0516259 43.0573969,59.0295633 43.0835375,60.0437105 C43.0806601,60.9344967 43.1963822,61.8217015 43.4276553,62.681946 C43.6198919,63.3969912 43.127494,64.1145406 42.3911616,64.1923812 C40.9938194,64.3400999 39.5847975,64.3400999 38.1309337,64.1850501 C36.587717,63.9476322 35.1466321,62.1365389 34.0246766,60.0638203 C32.7054014,62.2975267 31.1504993,64.1149446 29.6887509,64.2869131 C28.409823,64.439621 26.9690775,64.439621 23.1259614,64.3521948 C22.8812257,64.3466304 22.8812257,64.3466304 22.6365072,64.3411348 C21.2178637,64.3094584 20.3254464,64.2954082 19.4610132,64.2954082 C18.7104372,64.2954082 18.1426844,63.6163358 18.2756511,62.8776312 C18.2868991,62.8151431 18.3066568,62.6828164 18.3271828,62.4984675 C18.3894503,61.9392283 18.4051526,61.3563325 18.3479317,60.8338259 C18.2804924,60.2180101 18.1194706,59.7964807 17.9276349,59.6280397 C17.7577711,59.4783014 17.7577711,59.4783014 17.5883202,59.3267614 C17.3142474,59.0808555 17.0285462,58.8187209 16.7173251,58.5283911 C16.5092436,58.3342779 14.681246,56.5985884 14.154483,56.111636 L11.4566005,53.0283417 C10.9339954,52.3596957 8.37827561,47.9715727 7.39373173,46.5023862 C7.00923115,45.9530996 7.04835131,46.0021153 5.20347525,43.7244219 C5.10419597,43.6017879 5.10419597,43.6017879 5.00487692,43.4787869 C3.72858897,41.8969433 3.01039579,40.9278624 2.63983096,40.2224672 C1.85869461,38.9814693 1.63203211,37.470386 2.00702554,36.0846607 C2.65435954,33.4212901 5.18084824,31.6545148 8.00739507,31.9765255 C9.87925227,32.352548 11.5994721,33.2699986 12.9318565,34.5930703 C13.4746256,35.1042896 13.9904973,35.6428991 14.4729752,36.2008976 C14.311027,35.2790919 14.1423248,34.4303971 13.9508717,33.5857494 C13.7420524,32.6701569 13.6119082,32.1322566 13.4796033,31.633117 C13.4583331,31.553134 13.4583331,31.553134 13.4368852,31.4734661 C13.3648488,31.2066451 13.2815002,30.9091487 13.0657514,30.1408569 C12.9396235,29.6888985 12.8253558,29.2446177 12.6946287,28.7063104 C12.6445134,28.4991018 12.6445134,28.4991018 12.595107,28.2924004 C12.2111114,26.683012 12.2102985,26.6796667 12.0287549,25.9946813 C11.6369828,24.4074981 11.3288549,22.800831 11.1178949,21.2537819 C10.6592273,18.9675001 10.9929157,16.5931783 12.0639989,14.5218885 L12.3086547,14.1977956 C13.7844474,12.8097013 15.9493415,12.4433346 18.0245642,13.3996254 C19.6406643,14.5929527 20.8456138,16.2593723 21.4428757,18.0876563 C22.3253999,20.2442127 22.9143745,22.5094999 23.1875926,24.7770616 C23.2708797,25.2976057 23.3691746,25.8723542 23.4879021,26.5365089 C23.9814224,25.9992175 24.6087355,25.5702564 25.3385507,25.2933267 C26.4743861,24.9448258 27.6759255,24.8664646 28.8931253,25.0731286 C30.1829153,25.3427706 31.3253976,26.0846422 32.2390936,27.4134023 C32.2776763,27.5105564 32.3154261,27.6079997 32.3523408,27.7057214 C33.0474634,26.7880808 34.0331412,26.1254613 35.2389816,25.8059877 C36.4439956,25.5856657 37.6789738,25.5856657 39.0492444,25.8484904 C40.1515029,26.2169916 41.1157309,26.9118029 41.969903,28.1178854 C42.1942692,28.6797752 42.3912833,29.2513682 42.56057,29.8331326 C43.2017092,29.0079597 44.1254909,28.4226797 45.181171,28.2101182 C46.7306298,27.8981341 48.3288303,28.4364753 49.3737459,29.6223539 C50.3716596,30.7548899 50.7201566,32.3136993 50.3100149,33.7563331 L50.3100149,36.9793479 Z" id="Shape" fill="#000000" fill-rule="nonzero"></path>
            <path d="M39.598779,53.9885034 L39.598779,42.9021932 C39.598779,42.2385949 39.0595455,41.7006423 38.3943672,41.7006423 C37.7291888,41.7006423 37.1899553,42.2385949 37.1899553,42.9021932 L37.1899553,53.9885034 C37.1899553,54.6521015 37.7291888,55.1900541 38.3943672,55.1900541 C39.0595455,55.1900541 39.598779,54.6521015 39.598779,53.9885034 L39.598779,53.9885034 Z" id="Shape" fill="#000000" fill-rule="nonzero"></path>
            <path d="M33.2394649,53.9844414 L33.1752296,42.8924375 C33.1713958,42.2304227 32.6290632,41.696847 31.9638961,41.7006423 C31.2987287,41.7044783 30.7626122,42.2442404 30.7664257,42.9062552 L30.8306814,53.9982591 C30.834515,54.6602739 31.3768475,55.1938495 32.0420149,55.1900542 C32.707182,55.1862183 33.2432988,54.6464562 33.2394649,53.9844414 L33.2394649,53.9844414 Z" id="Shape" fill="#000000" fill-rule="nonzero"></path>
            <path d="M24.3428958,42.9178735 L24.407152,53.9869357 C24.4110305,54.655285 24.9533991,55.1939301 25.6185661,55.1900543 C26.283733,55.1861361 26.8198133,54.6411725 26.8159347,53.9728229 L26.7516994,42.9037609 C26.7478209,42.2354113 26.2054524,41.6967662 25.5402854,41.7006423 C24.8751184,41.7045604 24.3390382,42.2495239 24.3428958,42.9178735 L24.3428958,42.9178735 Z" id="Shape" fill="#000000" fill-rule="nonzero"></path>
            <rect id="Rectangle-34" fill="#E8F7FF" transform="translate(25.139285, 11.350001) rotate(-31.000000) translate(-25.139285, -11.350001) " x="20.32696" y="10.3750006" width="9.62464932" height="1.95000011"></rect>
            <polygon id="Rectangle-34" fill="#E8F7FF" transform="translate(4.812325, 11.741073) rotate(-148.000000) translate(-4.812325, -11.741073) " points="-2.03692482e-15 10.7660734 9.62464932 10.7660734 9.62464932 12.7160735 -2.03692482e-15 12.7160735"></polygon>
            <polygon id="Rectangle-34" fill="#E8F7FF" transform="translate(17.940306, 5.175000) rotate(-73.000000) translate(-17.940306, -5.175000) " points="13.1279813 4.20000029 22.7526306 4.20000029 22.7526306 6.15000039 13.1279813 6.15000039"></polygon>
            <rect id="Rectangle-34" fill="#E8F7FF" transform="translate(9.228304, 6.171622) rotate(-123.000000) translate(-9.228304, -6.171622) " x="4.41597957" y="5.19662192" width="9.62464932" height="1.95000011"></rect>
        </g>
        <g id="Path-10-Copy" fill-rule="nonzero">
            <use fill="black" fill-opacity="1" filter="url(#filter-13)" xlink:href="#path-12"></use>
            <use fill="#868E96" xlink:href="#path-12"></use>
        </g>
    </g>
</svg>