<svg width="269" height="54" viewBox="0 0 269 54" xmlns="http://www.w3.org/2000/svg"><title>Artboard Copy</title><g fill="none" fill-rule="evenodd"><g fill-rule="nonzero"><path d="M87.776 41.02l-5.773-8.912h-4.649v8.912H71V13.898h13.56c6.045 0 9.61 4.65 9.61 9.144 0 3.487-1.938 6.78-5.541 8.253l6.548 9.725h-7.4zM77.354 19.633v6.857h6.742c2.286 0 3.835-1.55 3.835-3.448 0-1.86-1.588-3.41-3.564-3.41h-7.013zm29.288 21.929c-6.432 0-10.849-4.223-10.849-10.384 0-5.927 4.146-10.46 10.461-10.46 6.548 0 10.345 4.533 10.345 10.228 0 .697-.039 1.395-.155 2.053h-14.606c.387 1.86 1.743 3.41 4.92 3.41 2.092 0 3.293-.814 3.952-2.015l5.58 1.628c-1.047 2.44-4.379 5.54-9.648 5.54zm-4.804-12.282h8.717c-.194-1.782-1.782-3.37-4.34-3.37-2.557 0-4.106 1.704-4.377 3.37zm41.608-8.563c4.688 0 7.865 3.023 7.865 8.64V41.02h-6.199V30.752c0-2.596-.814-4.3-3.138-4.3-2.441 0-3.449 1.743-3.449 4.765v9.803h-6.199V30.752c0-2.596-.813-4.3-3.138-4.3-2.44 0-3.448 1.743-3.448 4.765v9.803h-6.2V21.26h6.2v1.937c1.24-1.433 3.1-2.48 5.463-2.48 2.673 0 4.572.97 5.734 2.635 1.356-1.433 3.487-2.635 6.509-2.635zm20.221 20.845c-5.346 0-9.608-4.417-9.608-10.422 0-6.006 4.262-10.423 9.608-10.423 2.441 0 4.34.892 5.696 2.364V21.26h6.199v19.76h-6.2v-1.821c-1.355 1.433-3.254 2.363-5.695 2.363zm1.124-5.502c2.673 0 4.727-1.976 4.727-4.959 0-2.945-2.054-4.882-4.727-4.882-2.673 0-4.61 1.937-4.61 4.882 0 2.983 1.937 4.96 4.61 4.96zm27.816 4.96l-4.844-6.858-1.898 2.17v4.688h-6.2V12.736h6.2v15.77l5.928-7.246h7.129l-7.323 8.446 7.982 11.314h-6.974zm17.276.542c-6.431 0-10.848-4.223-10.848-10.384 0-5.927 4.146-10.46 10.461-10.46 6.548 0 10.345 4.533 10.345 10.228 0 .697-.039 1.395-.155 2.053h-14.607c.388 1.86 1.744 3.41 4.92 3.41 2.093 0 3.294-.814 3.953-2.015l5.579 1.628c-1.046 2.44-4.378 5.54-9.648 5.54zM205.08 29.28h8.718c-.194-1.782-1.783-3.37-4.34-3.37s-4.107 1.704-4.378 3.37z" fill="#0F2F70"/><path d="M47.85 15l-1.702-4.662h-33.02L11.383 15H6.995l2.998-8.009c.172-.458.61-.762 1.1-.762h37.109c.493 0 .934.308 1.103.771l2.919 8h-4.375z" fill="#E8590C"/><path d="M36.454 39l-.564-2.245H22.878L22.168 39H17.86l1.748-5.534c.154-.489.608-.82 1.12-.82h17.452c.539 0 1.008.365 1.14.887L40.69 39h-4.237z" fill="#9FB9F0"/><path d="M21.853 40l-2.034 6.44h18.504L36.705 40h4.237l2.375 9.455a.88.88 0 01-.854 1.095h-27.05a.88.88 0 01-.84-1.146L17.543 40h4.31z" fill="#1656DB"/><path d="M39.738 25l-.586-1.747H19.205L18.6 25h-4.348l1.751-5.066c.164-.473.61-.79 1.11-.79h24.149c.504 0 .952.322 1.113.8L44.073 25h-4.335z" fill="#F79DBD"/><path d="M26.988 11.038l-3.14 3.14a2.201 2.201 0 11-3.113-3.113L27.63 4.17a2.495 2.495 0 013.528 0l6.894 6.894a2.201 2.201 0 01-3.114 3.113l-3.253-3.253v29.939a2.348 2.348 0 01-4.696 0V11.038z" fill="#192E5B"/><path d="M18.255 26l-3.462 10.017h28.644L40.074 26h4.335l4.483 13.353a.587.587 0 01-.557.774H9.849a.587.587 0 01-.555-.78L13.908 26h4.347z" fill="#EC135F"/><path d="M11.383 15l-3.31 8.84h43.002L47.849 15h4.375l4.437 12.16a.587.587 0 01-.552.789H2.993a.587.587 0 01-.55-.793L6.995 15h4.388z" fill="#E8590C"/></g><text font-family="WorkSans-Bold, Work Sans" font-size="14" font-weight="bold" fill="#EC135F" transform="translate(2 3)"><tspan x="225" y="21">BETA</tspan></text></g></svg>