<?xml version="1.0" encoding="UTF-8"?>
<svg width="600px" height="400px" viewBox="0 0 600 400" version="1.1" xmlns="http://www.w3.org/2000/svg" xmlns:xlink="http://www.w3.org/1999/xlink">
    <!-- Generator: Sketch 64 (93537) - https://sketch.com -->
    <title>upload</title>
    <desc>Created with Sketch.</desc>
    <defs>
        <rect id="path-1" x="0" y="0" width="216.161173" height="158.746509" rx="9.26692818"></rect>
        <filter x="-7.3%" y="-8.6%" width="114.5%" height="119.8%" filterUnits="objectBoundingBox" id="filter-3">
            <feMorphology radius="1.20872976" operator="dilate" in="SourceAlpha" result="shadowSpreadOuter1"></feMorphology>
            <feOffset dx="0" dy="2" in="shadowSpreadOuter1" result="shadowOffsetOuter1"></feOffset>
            <feGaussianBlur stdDeviation="4.5" in="shadowOffsetOuter1" result="shadowBlurOuter1"></feGaussianBlur>
            <feComposite in="shadowBlurOuter1" in2="SourceAlpha" operator="out" result="shadowBlurOuter1"></feComposite>
            <feColorMatrix values="0 0 0 0 0   0 0 0 0 0   0 0 0 0 0  0 0 0 0.24 0" type="matrix" in="shadowBlurOuter1"></feColorMatrix>
        </filter>
        <linearGradient x1="53.8029689%" y1="15.6506969%" x2="42.1627498%" y2="99.0015045%" id="linearGradient-4">
            <stop stop-color="#FFFFFF" stop-opacity="0" offset="0%"></stop>
            <stop stop-color="#40C057" stop-opacity="0.75" offset="64.9862753%"></stop>
            <stop stop-color="#40C057" offset="100%"></stop>
        </linearGradient>
        <filter x="-20.4%" y="-31.7%" width="140.9%" height="162.0%" filterUnits="objectBoundingBox" id="filter-5">
            <feOffset dx="0" dy="2" in="SourceAlpha" result="shadowOffsetOuter1"></feOffset>
            <feGaussianBlur stdDeviation="4.5" in="shadowOffsetOuter1" result="shadowBlurOuter1"></feGaussianBlur>
            <feColorMatrix values="0 0 0 0 0   0 0 0 0 0   0 0 0 0 0  0 0 0 0.24 0" type="matrix" in="shadowBlurOuter1" result="shadowMatrixOuter1"></feColorMatrix>
            <feMerge>
                <feMergeNode in="shadowMatrixOuter1"></feMergeNode>
                <feMergeNode in="SourceGraphic"></feMergeNode>
            </feMerge>
        </filter>
        <rect id="path-6" x="0" y="0" width="187.000004" height="63.2500014" rx="7.84756146"></rect>
        <filter x="-3.5%" y="-8.7%" width="107.0%" height="120.6%" filterUnits="objectBoundingBox" id="filter-7">
            <feOffset dx="0" dy="1" in="SourceAlpha" result="shadowOffsetOuter1"></feOffset>
            <feGaussianBlur stdDeviation="2" in="shadowOffsetOuter1" result="shadowBlurOuter1"></feGaussianBlur>
            <feColorMatrix values="0 0 0 0 0   0 0 0 0 0   0 0 0 0 0  0 0 0 0.4 0" type="matrix" in="shadowBlurOuter1"></feColorMatrix>
        </filter>
        <filter x="-28.4%" y="-22.3%" width="156.8%" height="144.7%" filterUnits="objectBoundingBox" id="filter-8">
            <feOffset dx="0" dy="2" in="SourceAlpha" result="shadowOffsetOuter1"></feOffset>
            <feGaussianBlur stdDeviation="1.5" in="shadowOffsetOuter1" result="shadowBlurOuter1"></feGaussianBlur>
            <feColorMatrix values="0 0 0 0 0   0 0 0 0 0   0 0 0 0 0  0 0 0 0.3 0" type="matrix" in="shadowBlurOuter1" result="shadowMatrixOuter1"></feColorMatrix>
            <feMerge>
                <feMergeNode in="shadowMatrixOuter1"></feMergeNode>
                <feMergeNode in="SourceGraphic"></feMergeNode>
            </feMerge>
        </filter>
    </defs>
    <g id="upload" stroke="none" stroke-width="1" fill="none" fill-rule="evenodd">
        <rect fill="#FFFFFF" x="0" y="0" width="600" height="400"></rect>
        <g id="Group-4" transform="translate(342.000000, 118.500000)">
            <g id="Group-2">
                <g id="Group">
                    <mask id="mask-2" fill="white">
                        <use xlink:href="#path-1"></use>
                    </mask>
                    <g id="Rectangle">
                        <use fill="black" fill-opacity="1" filter="url(#filter-3)" xlink:href="#path-1"></use>
                        <rect stroke="#2B3554" stroke-width="1.20872976" fill="#EDF2FF" fill-rule="evenodd" x="-0.604364881" y="-0.604364881" width="217.369902" height="159.955239" rx="9.26692818"></rect>
                    </g>
                    <polygon id="Rectangle" fill="#2B3554" mask="url(#mask-2)" points="-0.805819842 -0.604364881 217.571357 -0.604364881 217.571357 17.5265816 -0.805819842 17.5265816"></polygon>
                </g>
                <circle id="Oval" fill="#EDF2FF" cx="11.4829327" cy="8.25965338" r="3.22327937"></circle>
                <circle id="Oval" fill="#EDF2FF" cx="23.5702304" cy="8.25965338" r="3.22327937"></circle>
                <circle id="Oval" fill="#EDF2FF" cx="35.657528" cy="8.25965338" r="3.22327937"></circle>
            </g>
            <g id="Group-3-Copy" transform="translate(57.817574, 54.392839)" stroke="#2B3554">
                <polygon id="Path-9" stroke-width="0.785674377" fill="#FFFFFF" points="45.0641958 13.1513257 54.2592063 10.8646471 55.9715295 26.097501 48.9149341 26.4612654"></polygon>
                <polygon id="Path-7" stroke-width="0.785674377" fill="#A3DAFF" points="32.2002291 5.88690777 42.3105961 1.68749332 50.9336457 23.7667861 38.9840242 23.7667861"></polygon>
                <polygon id="Path-10" stroke-width="0.785674377" fill="#A3DAFF" points="71.8746636 13.1114255 81.4654152 15.331635 79.0797316 27.2250278 68.4861536 22.988361"></polygon>
                <polygon id="Path-8" stroke-width="0.785674377" fill="#FFFFFF" points="48.9140002 20.7148784 54.7024611 1.58789523 75.3697782 8.10198378 70.048641 25.2634952"></polygon>
                <polygon id="Path-4" stroke-width="0.942809252" fill="#ECC9B8" points="12.0993854 18.856185 12.0993854 59.9048261 64.2429365 59.9048261 64.2429365 18.8579464"></polygon>
                <polygon id="Path-5" stroke-width="0.942809252" fill="#D3B09E" points="64.2429365 59.9048261 85.6037563 59.5366114 85.6037563 18.856185 64.2351738 18.8579464"></polygon>
                <polygon id="Path-6" stroke-width="0.785674377" fill="#FFFFFF" points="10.3317512 7.96410979 16.3796588 24.5884334 39.8121704 25.7883913 29.8391633 0.00700616586"></polygon>
                <polygon id="Path-2" stroke-width="0.942809252" fill="#FFE9D9" points="12.0993387 18.856185 0.121160968 31.9034848 52.2644085 32.1110572 64.2429365 18.8579464"></polygon>
                <polygon id="Path-3" stroke-width="0.942809252" fill="#EAC8B7" points="64.2429365 18.8579464 76.3479341 32.1110572 97.7088707 32.1110572 85.6037563 18.8579464"></polygon>
            </g>
            <g id="Group-3" transform="translate(33.642978, 184.935654)">
                <rect id="Rectangle" stroke="#2B3554" stroke-width="1.91670013" fill="#FFFFFF" x="0" y="0" width="145.954125" height="26.8338018" rx="13.4169009"></rect>
                <path d="M13.9245673,3.98880838 L106.791279,3.98880838 L106.791279,3.98880838 L106.791279,22.8449934 L13.9245673,22.8449934 C8.73760252,22.8449934 4.53273679,18.6401277 4.53273679,13.453163 L4.53273679,13.3806388 C4.53273679,8.1936741 8.73760252,3.98880838 13.9245673,3.98880838 Z" id="Rectangle" fill="#40C057"></path>
            </g>
        </g>
        <path d="M151.700002,354.000003 L153.95069,319.486485 L154.221023,315.068931 L156.201377,284.969823 L171.40609,300.181301 L175.222199,296.181921 C177.748953,293.786339 180.040491,291.15418 182.06542,288.321504 L188.311392,279.954877 C190.175492,277.062912 191.880703,274.071521 193.419446,270.994002 L195.934181,266.441248 C196.622589,264.831435 197.12868,263.221621 197.722786,261.611808 C199.085348,258.383775 200.218739,255.063692 201.114534,251.676241 C204.888122,237.476637 205.211459,222.580187 202.057559,208.230145 C198.832813,192.85479 192.574813,178.277101 183.649703,165.349999 C196.313916,176.017666 206.732797,189.095937 214.301172,203.825168 C222.434683,219.46529 226.793613,236.793178 227.028872,254.421099 C227.123582,258.956698 226.89985,263.493354 226.359324,267.997611 C226.177006,270.198527 226.044982,272.553508 225.73064,274.807876 L224.268951,281.432635 C223.168755,285.850189 222.439482,290.550719 220.974649,294.776479 L216.108638,307.563805 C214.557456,311.838226 212.622646,315.963434 210.327892,319.888938 L203.858738,331.893367 C203.767579,332.075729 203.676419,332.16691 203.582117,332.352415 L220.726319,349.497557 L151.700002,354.000003 Z" id="Path" fill="url(#linearGradient-4)" fill-rule="nonzero" transform="translate(189.375003, 259.675001) scale(-1, 1) rotate(76.000000) translate(-189.375003, -259.675001) "></path>
        <g id="Group-3-Copy" filter="url(#filter-5)" transform="translate(50.500000, 240.700001)" stroke="#2B3554">
            <polygon id="Path-9" stroke-width="0.923335219" fill="#FFFFFF" points="52.9600561 15.4556169 63.7661576 12.7682811 65.7785031 30.6701383 57.4854962 31.0976391"></polygon>
            <polygon id="Path-7" stroke-width="0.923335219" fill="#A3DAFF" points="37.8421474 6.91837412 49.7239883 1.98316512 59.8579135 27.9310504 45.8145557 27.9310504"></polygon>
            <polygon id="Path-10" stroke-width="0.923335219" fill="#A3DAFF" points="84.4680826 15.4087256 95.7392645 18.0179461 92.9355766 31.9952231 80.4858596 27.0162346"></polygon>
            <polygon id="Path-8" stroke-width="0.923335219" fill="#FFFFFF" points="57.4843987 24.3444069 64.2870766 1.86611608 88.5755889 9.52156158 82.3221161 29.6900033"></polygon>
            <polygon id="Path-4" stroke-width="1.10800226" fill="#ECC9B8" points="14.2193624 22.1600452 14.2193624 70.4009668 75.4991731 70.4009668 75.4991731 22.1621152"></polygon>
            <polygon id="Path-5" stroke-width="1.10800226" fill="#D3B09E" points="75.4991731 70.4009668 100.602699 69.9682358 100.602699 22.1600452 75.4900503 22.1621152"></polygon>
            <polygon id="Path-6" stroke-width="0.923335219" fill="#FFFFFF" points="12.1420146 9.3595302 19.2495979 28.8966615 46.7878044 30.3068683 35.0673908 0.00823374145"></polygon>
            <polygon id="Path-2" stroke-width="1.10800226" fill="#FFE9D9" points="14.2193075 22.1600452 0.142390018 37.4934095 61.4218441 37.7373514 75.4991731 22.1621152"></polygon>
            <polygon id="Path-3" stroke-width="1.10800226" fill="#EAC8B7" points="75.4991731 22.1621152 89.7251311 37.7373514 114.828794 37.7373514 100.602699 22.1621152"></polygon>
        </g>
        <g id="Group-6" transform="translate(72.500000, 73.000000)">
            <g id="Rectangle">
                <use fill="black" fill-opacity="1" filter="url(#filter-7)" xlink:href="#path-6"></use>
                <use fill="#228AE6" fill-rule="evenodd" xlink:href="#path-6"></use>
            </g>
            <path d="M54.1530012,41.6360002 C59.4154013,41.6360002 62.2182013,39.0620002 62.2182013,33.914 L62.2182013,22.4739998 L58.2428013,22.4739998 L58.2428013,33.7424 C58.2428013,36.9170001 56.9272012,38.4042001 54.1530012,38.4042001 C51.3788011,38.4042001 50.0346011,36.9170001 50.0346011,33.7424 L50.0346011,22.4739998 L46.087801,22.4739998 L46.087801,33.914 C46.087801,39.0620002 48.8906011,41.6360002 54.1530012,41.6360002 Z M70.1976015,47.3560003 L70.1976015,38.8904001 C70.9984015,40.5206002 72.5428016,41.6360002 74.6592016,41.6360002 C78.1770017,41.6360002 80.8082018,38.8618001 80.8082018,34.1714 C80.8082018,29.5095999 78.2342017,26.7639999 74.7450016,26.7639999 C72.4856016,26.7639999 70.7696015,27.9937999 69.9688015,29.8528 L69.7972015,27.0499999 L66.2794014,27.0499999 L66.2794014,47.3560003 L70.1976015,47.3560003 Z M73.5152016,38.6330001 C71.4846015,38.6330001 70.1976015,36.9456001 70.1976015,34.2 C70.1976015,31.3972 71.5418016,29.767 73.5724016,29.767 C75.6602016,29.767 76.8900017,31.3114 76.8900017,34.2 C76.8900017,37.0886001 75.6030016,38.6330001 73.5152016,38.6330001 Z M88.1584019,41.6360002 C89.1022019,41.6360002 90.189002,41.4072002 90.818202,41.0354002 L91.161402,38.4614001 C90.532202,38.6902001 90.217602,38.7474001 89.5598019,38.7474001 C88.5016019,38.7474001 88.0726019,38.2612001 88.0726019,36.9456001 L88.0726019,20.7865998 L84.1544018,20.7865998 L84.1544018,37.3746001 C84.1544018,40.3490002 85.3842019,41.6360002 88.1584019,41.6360002 Z M99.8558022,41.6360002 C104.174402,41.6360002 107.177402,38.8618001 107.177402,34.2 C107.177402,29.5381999 104.174402,26.7639999 99.8558022,26.7639999 C95.5372021,26.7639999 92.534202,29.5381999 92.534202,34.2 C92.534202,38.8618001 95.5372021,41.6360002 99.8558022,41.6360002 Z M99.8558022,38.7188001 C97.7108021,38.7188001 96.4524021,37.2316001 96.4524021,34.2 C96.4524021,31.1684 97.7108021,29.6811999 99.8558022,29.6811999 C101.972202,29.6811999 103.230602,31.1684 103.230602,34.2 C103.230602,37.2316001 101.972202,38.7188001 99.8558022,38.7188001 Z M114.356002,41.6360002 C116.157803,41.6360002 117.988203,40.8924002 118.903403,39.5768002 C119.332403,40.9210002 120.648003,41.5788002 122.278203,41.6074002 C123.050403,41.6074002 123.679603,41.4644002 124.137203,41.2356002 L124.366003,38.8046001 C124.108603,38.8904001 123.765403,38.9476002 123.450803,38.9476002 C122.764403,38.9476002 122.421203,38.6044001 122.421203,37.8608001 L122.421203,32.055 C122.421203,28.5371999 119.904403,26.7639999 116.157803,26.7639999 C112.439802,26.7639999 110.266202,28.4227999 109.608402,30.9396 L112.954602,31.9692 C113.440802,30.2818 114.584802,29.6239999 115.986203,29.6239999 C117.502003,29.6239999 118.531603,30.5964 118.531603,32.2266 L118.531603,32.77 L113.612402,33.771 C111.038402,34.2858 109.637002,35.6586001 109.637002,37.7750001 C109.637002,40.2918002 111.438802,41.6360002 114.356002,41.6360002 Z M115.357003,38.8618001 C114.356002,38.8618001 113.555202,38.3470001 113.555202,37.4032001 C113.555202,36.4022001 114.213002,36.0590001 115.528603,35.8016001 L118.531603,35.2010001 L118.531603,36.0876001 C118.531603,38.1754001 116.987203,38.8618001 115.357003,38.8618001 Z M132.145203,41.6360002 C134.290203,41.6360002 136.063403,40.4920002 136.864203,38.5758001 L137.035803,41.3500002 L140.553603,41.3500002 L140.553603,20.7865998 L136.635403,20.7865998 L136.635403,29.4523999 C135.863203,27.8221999 134.347403,26.7639999 132.288203,26.7639999 C128.741803,26.7639999 126.024803,29.4809999 126.024803,34.2286 C126.024803,38.8904001 128.598803,41.6360002 132.145203,41.6360002 Z M133.289203,38.6330001 C131.172803,38.6330001 129.943003,37.0886001 129.943003,34.2 C129.943003,31.3114 131.230003,29.767 133.346403,29.767 C135.348403,29.767 136.635403,31.3686 136.635403,34.0856 C136.635403,36.9742001 135.319803,38.6330001 133.289203,38.6330001 Z" id="Upload" fill="#FFFFFF" fill-rule="nonzero"></path>
            <g id="Group-2-Copy" filter="url(#filter-8)" transform="translate(156.200003, 37.950001)">
                <path d="M8.83955483,37.3481931 C8.19655945,36.5214848 7.39281523,34.8451039 5.99200386,32.755369 C5.18825964,31.6071629 3.21334526,29.4255715 2.61627813,28.3003296 C2.1858648,27.6165283 2.06097168,26.7839074 2.27181632,26.0039175 C2.63226108,24.5209149 4.03904587,23.5371493 5.55568557,23.7075054 C6.72869561,23.9431421 7.8066812,24.5180678 8.65584186,25.3609221 C9.24873082,25.9193479 9.7940986,26.5261655 10.2862944,27.1750876 C10.6537204,27.6343701 10.7455768,27.818083 11.158931,28.3462578 C11.5722852,28.8744326 11.8478546,29.4026073 11.6411775,28.6218272 C11.4804287,27.4736212 11.2048593,25.5446351 10.8144692,23.822326 C10.5159356,22.5133711 10.4470433,22.3066941 10.1714738,21.3192369 C9.89590438,20.3317797 9.73515553,19.5050713 9.43662197,18.3798294 C9.16373186,17.2742719 8.94910434,16.1551428 8.79362659,15.0270678 C8.50417067,13.5842414 8.71475475,12.0858548 9.39069372,10.7787055 C10.1930441,10.0240345 11.370041,9.82485038 12.3760294,10.2734948 C13.3878207,11.0206009 14.1422031,12.0638957 14.5346568,13.2588305 C15.1364664,14.7294265 15.5380992,16.274168 15.728791,17.8516546 C16.096217,20.1480667 16.8081047,23.5008283 16.8310688,24.189752 C16.8310688,23.3400795 16.67032,21.5488781 16.8310688,20.7451339 C16.9903319,19.9072285 17.5727144,19.2118464 18.3696649,18.9080042 C19.0535574,18.69817 19.7770107,18.6509883 20.482364,18.7702195 C21.194336,18.9190635 21.8249932,19.3285811 22.2506013,19.9184255 C22.7826363,21.2581362 23.0779044,22.6800852 23.1232379,24.1208596 C23.1847326,22.8591798 23.400675,21.6097977 23.7662333,20.400672 C24.1499731,19.85998 24.7103622,19.4701441 25.3507576,19.2983943 C26.1099356,19.1595879 26.8879917,19.1595879 27.6471697,19.2983943 C28.2697143,19.50652 28.8143004,19.8989424 29.2087299,20.4236362 C29.6950422,21.641529 29.9894234,22.92751 30.0813664,24.2356802 C30.0813664,24.5571779 30.2421153,23.3400795 30.7473259,22.5363353 C31.0098633,21.7569277 31.6682666,21.1767874 32.474522,21.0144476 C33.2807773,20.8521078 34.1123954,21.1322317 34.6561135,21.7492994 C35.1998317,22.3663672 35.3730462,23.2266314 35.1105089,24.006039 L35.1105089,26.4402358 L35.1105089,29.1959303 C35.0268306,30.539743 34.8426021,31.8753992 34.55937,33.1916873 C34.1597366,34.356241 33.6034949,35.4609987 32.9059533,36.4755565 C31.7909254,37.7155366 30.86962,39.1168497 30.1732229,40.6320624 C30.0004368,41.3848345 29.923281,42.1563936 29.9435817,42.9284744 C29.9412773,43.6418158 30.0339478,44.3522896 30.2191512,45.0411735 C29.2802381,45.1404297 28.3334774,45.1404297 27.3945643,45.0411735 C26.4989636,44.9033888 25.3966858,43.1121874 25.0981523,42.5610485 C24.9504422,42.2651158 24.6481203,42.0781259 24.3173722,42.0781259 C23.9866241,42.0781259 23.6843021,42.2651158 23.5365921,42.5610485 C23.0313814,43.4336851 21.9061395,45.0182094 21.1253594,45.1100659 C19.5867633,45.2937789 16.4177146,45.1100659 13.9146255,45.1100659 C13.9146255,45.1100659 14.3279797,42.8136538 13.3864507,41.9869455 C12.4449218,41.1602371 11.4804287,40.1957441 10.768541,39.5527487 L8.83955483,37.3481931 Z" id="Shape" fill="#FFFFFF" fill-rule="nonzero"></path>
                <path d="M11.345761,38.9136836 C11.6704354,39.206938 12.992824,40.4625499 13.1277411,40.5884105 C13.3426147,40.7888602 13.5388646,40.9689219 13.7258492,41.1366897 C13.8405524,41.2392682 13.8405524,41.2392682 13.9546415,41.3398393 C14.480638,41.8016898 14.7402316,42.4812647 14.8308455,43.308696 C14.8649881,43.6204658 14.8732925,43.9391628 14.8619299,44.2560176 C15.2462694,44.2614006 15.682352,44.2699509 16.223551,44.282035 C16.3990856,44.2859768 16.3990856,44.2859768 16.574234,44.2899593 C19.2102163,44.3499248 20.2281426,44.3499248 21.024741,44.2548097 C21.2834767,44.2243703 22.1961525,43.1576065 22.7660854,42.1764622 C23.0595621,41.5884909 23.6602277,41.2169714 24.3173722,41.2169714 C24.9745167,41.2169714 25.5751823,41.5884909 25.8553585,42.1508951 C26.3522084,43.0681562 27.2057396,44.1408374 27.485096,44.1847909 C28.0472618,44.2442198 28.6124334,44.265629 29.176765,44.2490184 C29.1126533,43.8148112 29.0811306,43.3794677 29.0827248,42.9511095 C29.0605208,42.106646 29.14491,41.2627533 29.3907545,40.2724371 C30.123372,38.6784167 31.0925954,37.2042198 32.1963367,35.9876718 C32.8496182,35.0374895 33.3705652,34.0028305 33.7174846,33.0105346 C33.9916698,31.7362916 34.1700135,30.443299 34.2493544,29.1959303 L34.2493544,24.006039 L34.294409,23.7311422 C34.4587352,23.243299 34.3503175,22.7048464 34.0099961,22.3186142 C33.6696745,21.932382 33.1491521,21.7570481 32.6445045,21.8586591 C32.1398567,21.9602701 31.727752,22.3233889 31.4764108,22.9946172 C31.4043439,23.1092693 31.333966,23.2501454 31.2670791,23.4123364 C31.164711,23.6605639 31.0858669,23.9134303 31.000151,24.2381335 C30.9609903,24.389947 30.938689,24.4737739 30.9175314,24.5365344 C30.9006737,24.5880241 30.9006737,24.5880241 30.8411626,24.7092414 C30.7020249,25.0812634 30.7020249,25.0812634 29.4455552,24.8632077 C29.1892039,24.2864242 29.1892039,24.2864242 29.2223311,24.2960563 C29.1366342,23.0767564 28.8622518,21.8781383 28.5203792,20.9410919 C28.2308512,20.5559443 27.8311017,20.2678896 27.4922858,20.1455059 C26.8355148,20.0254234 26.1624125,20.0254234 25.5738304,20.1301548 C25.1692,20.238674 24.8103574,20.4720046 24.5473999,20.7952964 C24.228323,21.8916874 24.0389777,23.0219106 23.9833714,24.1627827 C23.9296703,25.2645611 22.2972003,25.2504828 22.2625093,24.1479421 C22.2203123,22.8068523 21.9454733,21.4832854 21.5522618,20.4223194 C21.2523253,20.0066417 20.8078859,19.7180446 20.3388327,19.6193284 C19.7657331,19.522453 19.1779274,19.5607881 18.6764453,19.7126612 C18.1587999,19.9100167 17.7805234,20.3616901 17.6755003,20.9140201 C17.620663,21.1882069 17.6084884,21.7068635 17.6329677,22.4693417 C17.6384875,22.6412716 17.6433902,22.7667698 17.6557275,23.0611794 C17.6873904,23.8075191 17.6922233,23.9410016 17.6922233,24.189752 C17.6922233,25.3189859 16.0080126,25.3470483 15.9703923,24.2184412 C15.9606051,23.9248246 15.9562848,23.9007031 15.3261896,20.520192 C15.2903601,20.3277396 15.2903601,20.3277396 15.2546237,20.134666 C15.0937988,19.2642538 14.9734476,18.5814313 14.8738603,17.9550015 C14.6924194,16.4540424 14.3102707,14.9842398 13.7164985,13.5275391 C13.3797911,12.5023393 12.7325653,11.6072398 12.0252773,11.0599807 C11.3789629,10.7717414 10.6295839,10.8739394 10.0856366,11.3143676 C9.55535715,12.4140332 9.39763314,13.6600887 9.64671662,14.90949 C9.79807686,16.0076902 10.0070204,17.0971813 10.2689808,18.1589995 C10.4005102,18.6547639 10.4017458,18.6598489 10.6807855,19.8293499 C10.7155194,19.9746646 10.7155194,19.9746646 10.7503238,20.1185671 C10.8395475,20.4859721 10.9166087,20.7855915 11.0009347,21.0877594 C11.1539236,21.6324983 11.2161591,21.8546357 11.2701491,22.0546131 C11.2864678,22.1152285 11.2864678,22.1152285 11.3027339,22.1763941 C11.4032162,22.5554786 11.5006755,22.9582883 11.6543191,23.63196 C11.9786409,25.0627913 12.211245,26.4826457 12.4736601,28.4014642 C12.5505655,28.6919957 12.5819076,28.8543601 12.5706468,29.035784 C12.5419957,29.4973847 12.536535,29.5054756 11.5538045,29.8675865 C11.0958237,29.6799182 11.0958237,29.6799182 11.0059991,29.5656637 C10.9064363,29.4600668 10.5314788,28.9417922 10.4807675,28.8769944 C10.2907321,28.6341714 10.2209589,28.5387745 9.97642719,28.1957663 C9.83429153,27.9966311 9.7439386,27.8756627 9.60017436,27.6954975 C9.13686326,27.0846576 8.62350064,26.5134513 8.04918741,25.9721156 C7.31973926,25.2480847 6.39372533,24.7542106 5.45956112,24.5632783 C4.37378497,24.4413188 3.36665495,25.1456055 3.10313356,26.2286368 C2.95504031,26.7764869 3.04276286,27.3613039 3.37697813,27.8966928 C3.60232713,28.321389 4.08151099,28.967967 4.91890346,30.0058393 C4.98875041,30.0923409 4.98875041,30.0923409 5.05884522,30.178925 C5.28906074,30.462669 5.28906074,30.462669 5.51690356,30.7431502 C5.74166369,31.0204598 5.83123725,31.1314828 5.9566156,31.2885758 C6.27922774,31.6927932 6.51567195,32.0017904 6.70731613,32.275874 C7.46833772,33.4111684 9.21334896,36.4049485 9.5077787,36.8042326 L11.345761,38.9136836 Z M35.9716634,26.4402358 C35.9716634,27.8984574 35.9716634,27.8984574 35.9699987,29.2494501 C35.8836477,30.636187 35.6935344,32.0145069 35.3738988,33.4712045 C34.9489081,34.7096512 34.3573718,35.8845078 33.5462894,37.0513662 C32.4892553,38.2268536 31.615868,39.555283 31.012551,40.8247159 C30.8559637,41.5069157 30.7860412,42.206141 30.8047317,42.9312563 C30.8026743,43.5681685 30.8854156,44.2025199 31.0507759,44.8175948 C31.1882251,45.3288522 30.8361606,45.8419 30.3096829,45.8975561 C29.3105831,46.003175 28.3031324,46.003175 27.2636197,45.8923143 C26.1602197,45.7225605 25.1298439,44.4276287 24.3276456,42.9456348 C23.3843638,44.542735 22.2726087,45.8421889 21.2274586,45.9651464 C20.313025,46.0743325 19.2828919,46.0743325 16.5350637,46.0118228 C16.3600776,46.0078443 16.3600776,46.0078443 16.1851039,46.0039149 C15.1707737,45.9812663 14.5326953,45.9712204 13.9146255,45.9712204 C13.3779636,45.9712204 12.9720203,45.4856836 13.0670916,44.9575097 C13.0751338,44.9128307 13.0892606,44.8182172 13.1039367,44.6864077 C13.1484579,44.2865516 13.1596851,43.8697811 13.1187722,43.4961888 C13.070553,43.0558805 12.9554225,42.754487 12.81826,42.6340517 C12.6968073,42.5269888 12.6968073,42.5269888 12.5756499,42.4186376 C12.3796878,42.2428149 12.1754114,42.0553887 11.9528883,41.8478029 C11.8041101,41.7090119 10.4970917,40.4679938 10.1204561,40.1198228 L8.19147,37.9152673 C7.81780729,37.4371853 5.99046752,34.2996771 5.28651859,33.2492087 C5.01160066,32.8564687 5.03957158,32.891515 3.72048509,31.2629641 C3.6495004,31.1752808 3.6495004,31.1752808 3.57848727,31.087335 C2.66594132,29.9563168 2.15243315,29.2634239 1.88747928,28.7590662 C1.32896675,27.8717527 1.16690305,26.791328 1.43502337,25.8005344 C1.89786722,23.8962242 3.70430677,22.6329798 5.72528791,22.8632175 C7.06366591,23.1320736 8.29362316,23.7880508 9.24627809,24.7340472 C9.63435804,25.099569 10.0032064,25.4846748 10.3481781,25.8836438 C10.2323851,25.2245527 10.111763,24.6177358 9.97487406,24.0138126 C9.82556824,23.359164 9.7325151,22.9745652 9.63791706,22.6176804 C9.62270889,22.5604926 9.62270889,22.5604926 9.60737366,22.50353 C9.55586762,22.312753 9.49627336,22.100043 9.34201298,21.5507143 C9.2518315,21.227564 9.17013007,20.9099033 9.07666022,20.5250135 C9.04082779,20.3768594 9.04082779,20.3768594 9.0055022,20.2290678 C8.73094535,19.0783551 8.73036413,19.0759632 8.60056043,18.5861985 C8.32044335,17.4513625 8.10013184,16.3025954 7.94929548,15.1964552 C7.62134809,13.5617636 7.85993536,11.8641234 8.62575985,10.3831511 L8.80068879,10.1514246 C9.85588065,9.15893713 11.40378,8.89698492 12.8875644,9.58073291 C14.043076,10.433962 14.904615,11.6254521 15.3316573,12.9326752 C15.9626621,14.4746132 16.3837791,16.0942937 16.57913,17.7156004 C16.6386802,18.0877895 16.7089611,18.4987347 16.7938513,18.9736053 C17.1467183,18.5894419 17.5952473,18.2827347 18.1170651,18.08473 C18.9291875,17.8355518 19.7882882,17.7795235 20.6585862,17.9272884 C21.5807861,18.1200824 22.397661,18.6505206 23.0509537,19.6005841 C23.0785403,19.6700493 23.1055314,19.7397213 23.1319254,19.8095923 C23.6289381,19.1534792 24.3336978,18.6797063 25.1958738,18.4512826 C26.0574589,18.2937524 26.9404684,18.2937524 27.9202119,18.4816721 C28.7083267,18.7451504 29.3977498,19.2419405 30.0084829,20.1042896 C30.1689048,20.5060408 30.3097699,20.9147299 30.4308099,21.3306914 C30.8892245,20.7406928 31.5497284,20.3222176 32.3045397,20.170236 C33.4124029,19.9471674 34.5551163,20.3320814 35.302231,21.1799847 C36.0157394,21.9897479 36.2649148,23.1042968 35.9716634,24.13578 L35.9716634,26.4402358 Z" id="Shape" fill="#000000" fill-rule="nonzero"></path>
                <path d="M28.3131292,38.6017829 L28.3131292,30.6750705 C28.3131292,30.2005977 27.9275772,29.8159615 27.4519746,29.8159615 C26.9763721,29.8159615 26.5908201,30.2005977 26.5908201,30.6750705 L26.5908201,38.6017829 C26.5908201,39.0762556 26.9763721,39.4608917 27.4519746,39.4608917 C27.9275772,39.4608917 28.3131292,39.0762556 28.3131292,38.6017829 L28.3131292,38.6017829 Z" id="Shape" fill="#000000" fill-rule="nonzero"></path>
                <path d="M23.7662193,38.5988786 L23.720291,30.6680951 C23.7175498,30.1947546 23.329782,29.8132479 22.8541875,29.8159615 C22.3785927,29.8187042 21.9952694,30.2046342 21.9979961,30.6779748 L22.0439389,38.6087582 C22.0466799,39.0820988 22.4344477,39.4636054 22.9100424,39.4608918 C23.385637,39.4581491 23.7689605,39.0722192 23.7662193,38.5988786 L23.7662193,38.5988786 Z" id="Shape" fill="#000000" fill-rule="nonzero"></path>
                <path d="M17.4051718,30.6862819 L17.451115,38.600662 C17.4538882,39.0785318 17.8416817,39.4636631 18.3172761,39.4608918 C18.7928706,39.4580903 19.1761679,39.0684413 19.1733948,38.5905713 L19.1274666,30.6761914 C19.1246934,30.1983214 18.7368999,29.8131901 18.2613055,29.8159615 C17.785711,29.818763 17.4024136,30.2084119 17.4051718,30.6862819 L17.4051718,30.6862819 Z" id="Shape" fill="#000000" fill-rule="nonzero"></path>
                <rect id="Rectangle-34" fill="#E8F7FF" transform="translate(17.974590, 8.115251) rotate(-31.000000) translate(-17.974590, -8.115251) " x="14.5337775" y="7.41812602" width="6.88162479" height="1.39425018"></rect>
                <polygon id="Rectangle-34" fill="#E8F7FF" transform="translate(3.440812, 8.394868) rotate(-148.000000) translate(-3.440812, -8.394868) " points="-1.45640136e-15 7.69774308 6.88162479 7.69774308 6.88162479 9.09199327 -1.45640136e-15 9.09199327"></polygon>
                <polygon id="Rectangle-34" fill="#E8F7FF" transform="translate(12.827320, 3.700126) rotate(-73.000000) translate(-12.827320, -3.700126) " points="9.38650733 3.00300043 16.2681321 3.00300043 16.2681321 4.39725062 9.38650733 4.39725062"></polygon>
                <rect id="Rectangle-34" fill="#E8F7FF" transform="translate(6.598238, 4.412710) rotate(-123.000000) translate(-6.598238, -4.412710) " x="3.15742563" y="3.71558495" width="6.88162479" height="1.39425018"></rect>
            </g>
        </g>
    </g>
</svg>